 <svg version="1.0" xmlns="http://www.w3.org/2000/svg" width="700.000000pt" height="556.000000pt" viewBox="0 0 700.000000 556.000000" preserveAspectRatio="xMidYMid meet">
<metadata>
Created by potrace 1.12, written by Peter Selinger 2001-2015
</metadata>
<g transform="translate(0.000000,556.000000) scale(0.100000,-0.100000)" fill="#F5F5F5" stroke="none">
<path d="M2464 5000 c-52 -11 -128 -49 -220 -111 -68 -46 -139 -80 -266 -129
-110 -42 -163 -109 -208 -260 -20 -68 -22 -89 -17 -265 3 -129 11 -227 25
-305 36 -204 102 -513 121 -576 22 -70 78 -167 92 -158 5 3 9 99 9 213 0 214
11 370 35 502 38 207 170 457 309 586 114 106 184 136 440 194 220 49 376 108
432 164 57 57 17 78 -181 99 -83 9 -201 25 -264 36 -116 20 -234 24 -307 10z"></path>
<path d="M3570 4911 c-33 -10 -80 -35 -165 -86 -38 -23 -115 -66 -170 -95
-437 -231 -487 -262 -583 -354 -108 -102 -232 -304 -288 -468 -46 -136 -73
-363 -59 -495 9 -86 41 -123 106 -123 56 0 123 33 148 73 10 18 35 86 55 152
37 122 94 272 129 335 66 121 86 152 133 211 72 89 216 226 289 276 273 185
578 219 940 106 229 -72 472 -239 575 -397 69 -106 88 -178 130 -486 44 -316
139 -474 178 -294 17 84 17 486 -2 649 -46 406 -135 595 -348 743 -94 65 -170
90 -714 233 -92 24 -130 29 -220 28 -60 0 -120 -4 -134 -8z"></path>
<path d="M3535 4244 c-132 -32 -175 -50 -260 -109 -75 -53 -301 -284 -353
-362 -72 -109 -194 -343 -247 -477 -31 -80 -32 -154 -1 -218 54 -112 258 -228
458 -259 107 -17 252 -7 308 21 75 38 96 56 194 178 52 64 134 160 182 212
100 110 184 233 228 334 27 63 31 82 31 166 0 113 -17 157 -78 201 -75 55
-134 69 -280 69 -123 0 -137 -2 -185 -26 -102 -51 -189 -179 -180 -266 4 -41
22 -43 26 -3 8 74 73 153 161 193 143 66 315 19 388 -105 23 -40 28 -59 27
-113 -1 -107 -58 -191 -183 -274 -85 -55 -118 -66 -206 -66 -63 0 -82 5 -141
35 -85 42 -165 111 -202 173 -62 107 -23 249 107 381 131 133 306 186 530 162
175 -19 302 -67 391 -147 58 -52 63 -75 58 -232 -9 -237 -42 -296 -318 -572
-213 -213 -237 -241 -245 -295 -6 -36 -3 -43 24 -69 58 -56 173 -46 316 28
139 71 320 275 419 473 120 239 81 538 -93 707 -80 78 -98 90 -203 141 -105
50 -194 76 -351 99 -115 17 -290 28 -322 20z"></path>
<path d="M5136 4071 c-26 -29 -16 -78 33 -161 35 -58 42 -80 51 -161 6 -52 16
-137 22 -189 22 -185 14 -224 -105 -520 -65 -163 -73 -193 -87 -340 -14 -146
-46 -312 -71 -369 -10 -24 -19 -48 -19 -52 0 -16 -43 -102 -89 -179 -148 -247
-381 -475 -657 -643 -174 -106 -389 -208 -519 -246 -166 -48 -436 -79 -770
-89 l-250 -7 -3 -35 c-7 -75 61 -254 148 -389 111 -171 284 -297 465 -336 114
-25 296 -30 390 -11 149 31 208 68 424 264 202 185 259 218 624 363 326 130
507 213 617 284 198 127 313 275 327 418 7 84 -17 138 -121 267 -42 52 -76
102 -76 112 0 10 18 29 43 44 172 106 255 191 292 299 30 91 45 278 51 680 6
373 6 392 -13 441 -27 69 -76 141 -173 252 -108 124 -170 171 -325 248 -155
76 -183 84 -209 55z"></path>
<path d="M1348 3885 c-132 -42 -233 -150 -343 -367 -76 -148 -118 -269 -139
-393 -40 -242 -47 -269 -104 -399 l-57 -131 0 -135 c0 -168 10 -194 125 -314
130 -135 597 -472 840 -606 187 -103 255 -130 440 -171 155 -34 489 -54 504
-30 3 5 -44 39 -104 77 -185 115 -285 226 -513 569 -63 96 -152 212 -221 290
-141 160 -161 195 -153 277 4 47 18 85 62 172 84 163 105 224 105 304 0 71
-30 231 -55 294 -24 62 -74 268 -89 375 -25 169 -47 195 -169 200 -53 2 -98
-2 -129 -12z"></path>
<path d="M3568 3783 c-37 -41 -48 -66 -48 -115 0 -37 5 -49 33 -74 68 -63 153
-73 228 -26 24 16 50 36 57 44 19 24 -2 32 -37 13 -62 -32 -161 -10 -161 35 0
11 10 40 22 64 21 44 21 46 3 66 -26 28 -66 25 -97 -7z"></path>
<path d="M4695 3478 c-4 -12 -39 -138 -72 -263 -59 -223 -216 -446 -393 -561
-93 -60 -219 -119 -305 -144 -182 -52 -418 -5 -1000 200 -327 115 -463 142
-605 121 -115 -17 -207 -67 -305 -165 -119 -119 -147 -193 -105 -276 20 -39
21 -40 190 -118 110 -50 178 -132 293 -348 41 -78 93 -168 115 -200 112 -164
290 -271 582 -350 48 -13 103 -17 205 -18 198 0 330 35 549 145 112 56 130 68
236 153 213 171 424 433 548 681 43 87 98 265 122 396 41 220 34 574 -13 715
-13 39 -34 55 -42 32z"></path>
</g>
</svg>
