<?xml version="1.0" encoding="iso-8859-1"?>
<!-- Generator: Adobe Illustrator 19.0.0, SVG Export Plug-In . SVG Version: 6.00 Build 0)  -->
<svg version="1.1" id="Capa_1" xmlns="http://www.w3.org/2000/svg" xmlns:xlink="http://www.w3.org/1999/xlink" x="0px" y="0px"
	 viewBox="0 0 512.001 512.001" style="enable-background:new 0 0 512.001 512.001;" xml:space="preserve">
<path style="fill:#937FE6;" d="M392.409,507.353l7.726,4.648h50.85c0-117.826-78.024-126.4-78.024-126.4H139.035
	c0,0-78.024,8.574-78.024,126.4h50.849l7.726-7.744l7.726,7.744h257.37L392.409,507.353z"/>
<path style="fill:#8271CC;" d="M163.76,385.6h-24.724c0,0-78.024,8.574-78.024,126.4h24.724
	C85.736,394.175,163.76,385.6,163.76,385.6z"/>
<path style="fill:#2FC8B4;" d="M36.592,219.071L36.592,219.071c-21.868-22.794-12.29-60.617,17.791-70.256l0,0l0,0
	c-13.282-28.66,8.058-61.324,39.639-60.673l0,0l0,0c-3.256-31.419,27.534-55.384,57.192-44.514l0,0l0,0
	c7.122-30.775,44.025-43.443,68.546-23.532l0,0l0,0c16.728-26.794,55.745-26.794,72.473,0l0,0l0,0
	c24.521-19.911,61.425-7.242,68.546,23.532l0,0l0,0c29.658-10.869,60.448,13.095,57.192,44.514l0,0l0,0
	c31.581-0.651,52.921,32.013,39.639,60.673l0,0l0,0c30.081,9.638,39.659,47.461,17.791,70.255l0,0H36.592V219.071z"/>
<circle style="fill:#D4D2D3;" cx="448.24" cy="247.244" r="42.392"/>
<path style="fill:#EFEDEE;" d="M255.998,109.536c0,0-95.328-47.07-166.667,58.469c-14.588,21.582-23.439,46.587-25.293,72.572
	c-0.176,2.469-0.278,4.78-0.278,6.815c0,100.411,86.069,181.81,192.239,181.81s192.239-81.4,192.239-181.81
	c0-2.035-0.102-4.345-0.278-6.815c-1.854-25.984-10.705-50.989-25.293-72.572C351.326,62.466,255.998,109.536,255.998,109.536z"/>
<path style="fill:#D4D2D3;" d="M94.664,247.392c0-2.035,0.102-4.345,0.278-6.815c1.854-25.985,10.705-50.99,25.293-72.572
	c32.189-47.621,69.26-64.167,100.256-67.99c-34.263-4.109-87.252,3.03-131.162,67.99c-7.882,11.661-14.072,24.327-18.406,37.602
	c-2.084-0.488-4.449-0.754-7.166-0.754c-23.411,0-42.389,18.978-42.389,42.389s18.978,42.389,42.389,42.389
	c1.872,0,3.566-0.134,5.131-0.369c19.995,80.225,96.174,139.941,187.107,139.941c5.202,0,10.354-0.202,15.453-0.586
	C172.507,421.172,94.664,342.882,94.664,247.392z"/>
<g>
	<path style="fill:#8271CC;" d="M384.683,512.001v-44.746c0-4.267,3.459-7.726,7.726-7.726c4.267,0,7.726,3.459,7.726,7.726v44.746
		H384.683z"/>
	<path style="fill:#8271CC;" d="M111.86,512.001v-44.746c0-4.267,3.459-7.726,7.726-7.726c4.267,0,7.726,3.459,7.726,7.726v44.746
		H111.86z"/>
</g>
<g>
	<path style="fill:#3A484A;" d="M159.251,266.384c-4.267,0-7.726-3.459-7.726-7.726v-18.811c0-4.267,3.459-7.726,7.726-7.726
		c4.267,0,7.726,3.459,7.726,7.726v18.811C166.978,262.925,163.518,266.384,159.251,266.384z"/>
	<path style="fill:#3A484A;" d="M352.744,266.384c-4.267,0-7.726-3.459-7.726-7.726v-18.811c0-4.267,3.459-7.726,7.726-7.726
		s7.726,3.459,7.726,7.726v18.811C360.471,262.925,357.011,266.384,352.744,266.384z"/>
	<path style="fill:#3A484A;" d="M255.998,332.116c-8.973,0-17.401-3.753-23.121-10.297c-2.808-3.212-2.481-8.094,0.731-10.902
		c3.212-2.808,8.093-2.481,10.902,0.731c2.787,3.187,6.973,5.015,11.488,5.015c4.514,0,8.701-1.828,11.487-5.014
		c2.809-3.213,7.69-3.541,10.902-0.732c3.213,2.808,3.542,7.689,0.732,10.902C273.4,328.362,264.972,332.116,255.998,332.116z"/>
</g>
<circle style="fill:#DC5A64;" cx="255.998" cy="267.003" r="30.56"/>
<g>
	<circle style="fill:#F98084;" cx="352.742" cy="299.866" r="18.003"/>
	<circle style="fill:#F98084;" cx="159.254" cy="299.866" r="18.003"/>
</g>
<g>
	<path style="fill:#BF4E57;" d="M234.439,448.735c-53.641,38.279-89.18,43.178-89.18-19.533s35.539-57.813,89.18-19.533V448.735z"/>
	<path style="fill:#BF4E57;" d="M277.556,448.735c53.641,38.279,89.18,43.178,89.18-19.533s-35.539-57.813-89.18-19.533V448.735z"/>
</g>
<g>
	<path style="fill:#DC5A64;" d="M171.005,432.683c-3.558,0-6.76-2.472-7.544-6.091c-0.903-4.17,1.745-8.284,5.915-9.187
		c13.784-2.986,33.072-3.132,57.324-0.433c4.241,0.472,7.297,4.293,6.825,8.533c-0.472,4.241-4.298,7.297-8.534,6.824
		c-22.269-2.479-40.37-2.417-52.342,0.177C172.098,432.625,171.547,432.683,171.005,432.683z"/>
	<path style="fill:#DC5A64;" d="M340.991,432.683c-0.542,0-1.093-0.058-1.644-0.177c-11.975-2.594-30.074-2.656-52.342-0.177
		c-4.242,0.473-8.061-2.584-8.534-6.824c-0.472-4.241,2.584-8.061,6.825-8.533c24.254-2.7,43.54-2.554,57.324,0.433
		c4.17,0.903,6.819,5.017,5.915,9.187C347.75,430.211,344.549,432.683,340.991,432.683z"/>
	<path style="fill:#DC5A64;" d="M260.845,403.488h-9.693c-14.201,0-25.714,11.512-25.714,25.713l0,0
		c0,14.201,11.512,25.714,25.714,25.714h9.693c14.201,0,25.714-11.512,25.714-25.714l0,0
		C286.558,415,275.046,403.488,260.845,403.488z"/>
</g>
<circle style="fill:#EFEDEE;" cx="255.998" cy="482.187" r="11.331"/>
<g>
</g>
<g>
</g>
<g>
</g>
<g>
</g>
<g>
</g>
<g>
</g>
<g>
</g>
<g>
</g>
<g>
</g>
<g>
</g>
<g>
</g>
<g>
</g>
<g>
</g>
<g>
</g>
<g>
</g>
</svg>
