<?xml version="1.0" encoding="iso-8859-1"?>
<!-- Generator: Adobe Illustrator 19.0.0, SVG Export Plug-In . SVG Version: 6.00 Build 0)  -->
<svg version="1.1" id="Capa_1" xmlns="http://www.w3.org/2000/svg" xmlns:xlink="http://www.w3.org/1999/xlink" x="0px" y="0px"
	 viewBox="0 0 512 512" style="enable-background:new 0 0 512 512;" xml:space="preserve">
<polygon style="fill:#F98084;" points="135.881,428.297 110.879,445.146 92.72,479.389 114.684,512 397.316,512 419.28,479.389 
	401.121,445.146 376.119,428.297 256,401.121 "/>
<g>
	<path style="fill:#DC5A64;" d="M114.684,512c0-51.091,21.197-83.703,21.197-83.703c-53.266,0-78.268,54.896-78.268,83.703H114.684z
		"/>
	<path style="fill:#DC5A64;" d="M397.316,512c0-51.091-21.197-83.703-21.197-83.703c53.266,0,78.268,54.896,78.268,83.703H397.316z"
		/>
	<circle style="fill:#DC5A64;" cx="330.42" cy="471.916" r="17.166"/>
</g>
<path style="fill:#EFEDEE;" d="M142.425,401.647l-6.548-10.835C98.091,328.28,74.144,270.44,64.702,218.898
	c-9.696-52.922-4.131-98.336,16.541-134.979c15.746-27.914,39.514-49.339,70.641-63.683C181.019,6.807,216.05,0,256,0
	s74.981,6.807,104.119,20.235c31.127,14.343,54.894,35.77,70.641,63.683c20.672,36.644,26.237,82.057,16.541,134.979
	c-9.443,51.542-33.389,109.382-71.175,171.914l-6.549,10.835H142.425V401.647z"/>
<path style="fill:#D4D2D3;" d="M81.183,218.897c-9.696-52.922-4.131-98.336,16.541-134.979
	c15.746-27.914,39.514-49.339,70.641-63.683C195.48,7.74,227.704,0.985,264.241,0.106C261.517,0.041,258.773,0,256,0
	c-39.95,0-74.981,6.807-104.119,20.235c-31.126,14.343-54.893,35.77-70.64,63.684c-20.672,36.644-26.237,82.057-16.541,134.979
	c9.444,51.542,33.39,109.382,71.175,171.914l6.548,10.835h16.483l-6.548-10.835C114.574,328.28,90.627,270.44,81.183,218.897z"/>
<path style="fill:#2FC8B4;" d="M163.787,373.944C34.605,160.158,91.131,32.611,256,32.611s221.395,127.547,92.213,341.333
	L256,401.121L163.787,373.944z"/>
<path style="fill:#00AE95;" d="M194.693,373.944c-125.06-206.962-76.075-333.1,76.76-340.943c-5.04-0.259-10.191-0.39-15.453-0.39
	c-164.869,0-221.395,127.547-92.213,341.333L256,401.121l15.453-4.553L194.693,373.944z"/>
<path style="fill:#3A484A;" d="M174.43,262.699c-4.267,0-7.726-3.459-7.726-7.726v-15.861c0-4.267,3.459-7.726,7.726-7.726
	c4.267,0,7.726,3.459,7.726,7.726v15.861C182.157,259.24,178.697,262.699,174.43,262.699z"/>
<path style="fill:#DC5A64;" d="M185.232,286.011H163.63c-4.267,0-7.726-3.459-7.726-7.726s3.459-7.726,7.726-7.726h21.602
	c4.267,0,7.726,3.459,7.726,7.726S189.499,286.011,185.232,286.011z"/>
<path style="fill:#3A484A;" d="M337.57,262.699c-4.267,0-7.726-3.459-7.726-7.726v-15.861c0-4.267,3.459-7.726,7.726-7.726
	c4.267,0,7.726,3.459,7.726,7.726v15.861C345.296,259.24,341.837,262.699,337.57,262.699z"/>
<path style="fill:#DC5A64;" d="M348.37,286.011h-21.602c-4.267,0-7.726-3.459-7.726-7.726s3.459-7.726,7.726-7.726h21.602
	c4.267,0,7.726,3.459,7.726,7.726S352.637,286.011,348.37,286.011z"/>
<path style="fill:#3A484A;" d="M256,285.115c-7.916,0-15.354-3.315-20.407-9.096c-2.808-3.213-2.481-8.094,0.732-10.902
	c3.213-2.808,8.094-2.481,10.902,0.732c2.118,2.424,5.316,3.814,8.772,3.814c3.456,0,6.654-1.39,8.773-3.814
	c2.807-3.213,7.689-3.541,10.902-0.731c3.213,2.808,3.541,7.689,0.731,10.902C271.353,281.8,263.915,285.115,256,285.115z"/>
<path style="fill:#937FE6;" d="M348.212,373.944H163.787c-15.413,0-27.907,12.494-27.907,27.907v26.446h240.238v-26.446
	C376.119,386.438,363.625,373.944,348.212,373.944z"/>
<path style="fill:#8271CC;" d="M194.693,373.944h-30.905c-15.413,0-27.907,12.494-27.907,27.907v26.446h30.905v-26.446
	C166.786,386.438,179.28,373.944,194.693,373.944z"/>
<g>
	<circle style="fill:#EFEDEE;" cx="330.194" cy="401.122" r="9.24"/>
	<circle style="fill:#EFEDEE;" cx="280.735" cy="401.122" r="9.24"/>
	<circle style="fill:#EFEDEE;" cx="231.265" cy="401.122" r="9.24"/>
	<circle style="fill:#EFEDEE;" cx="181.806" cy="401.122" r="9.24"/>
</g>
<g>
</g>
<g>
</g>
<g>
</g>
<g>
</g>
<g>
</g>
<g>
</g>
<g>
</g>
<g>
</g>
<g>
</g>
<g>
</g>
<g>
</g>
<g>
</g>
<g>
</g>
<g>
</g>
<g>
</g>
</svg>
