<?xml version="1.0" encoding="iso-8859-1"?>
<!-- Generator: Adobe Illustrator 19.0.0, SVG Export Plug-In . SVG Version: 6.00 Build 0)  -->
<svg version="1.1" id="Capa_1" xmlns="http://www.w3.org/2000/svg" xmlns:xlink="http://www.w3.org/1999/xlink" x="0px" y="0px"
	 viewBox="0 0 512 512" style="enable-background:new 0 0 512 512;" xml:space="preserve">
<path style="fill:#313D40;" d="M43.391,213.241v194.765c0,14.112,11.44,25.553,25.553,25.553h374.112
	c14.112,0,25.553-11.44,25.553-25.553V213.241H43.391z"/>
<path style="fill:#EFEDEE;" d="M434.186,412.257l-28.008-4.901l12.614-18.702c-7.655-9.64-15.405-16.859-22.139-21.833l0,0
	c-11.514-8.508-20.053-11.705-20.053-11.705H135.401c0,0-8.54,3.198-20.054,11.705c-6.732,4.974-14.483,12.192-22.139,21.833
	l12.614,18.702l-28.008,4.901C64.911,436.421,54.952,469.268,54.952,512h62.389l7.726-4.297l7.726,4.297h246.414l7.726-4.297
	L394.66,512h62.389C457.048,469.268,447.089,436.421,434.186,412.257z"/>
<path style="fill:#D4D2D3;" d="M130.547,407.356l-12.614-18.702c7.655-9.64,15.405-16.859,22.139-21.833
	c11.514-8.508,20.054-11.705,20.054-11.705h-24.724c0,0-8.54,3.198-20.054,11.705c-6.732,4.974-14.483,12.192-22.139,21.833
	l12.614,18.702l-28.008,4.901C64.911,436.421,54.952,469.268,54.952,512h24.724c0-42.732,9.959-75.579,22.863-99.743
	L130.547,407.356z"/>
<g>
	<path style="fill:#008FC7;" d="M93.209,388.654c-5.302,6.678-10.553,14.536-15.395,23.602l153.442,41.921l20.963-32.145
		l-120.967-44.232L93.209,388.654z"/>
	<path style="fill:#008FC7;" d="M418.791,388.654c5.302,6.678,10.553,14.536,15.395,23.602l-153.442,41.921l-20.963-32.145
		l120.967-44.232L418.791,388.654z"/>
</g>
<g>
	<path style="fill:#F98084;" d="M252.219,422.033c-15.456-1.301-31.111,5.711-40.178,19.614c-9.066,13.902-9.17,31.057-1.747,44.676
		c15.456,1.301,31.111-5.711,40.178-19.614C259.538,452.807,259.642,435.652,252.219,422.033z"/>
	<path style="fill:#F98084;" d="M259.781,422.033c15.456-1.301,31.111,5.711,40.178,19.614c9.066,13.902,9.17,31.057,1.747,44.676
		c-15.456,1.301-31.111-5.711-40.178-19.614C252.462,452.807,252.358,435.652,259.781,422.033z"/>
</g>
<path style="fill:#00A1E0;" d="M396.322,345.646c0,0,31.65,13.998,22.472,43.009L256,443.868L93.207,388.655
	c-9.179-29.011,22.472-43.009,22.472-43.009L396.322,345.646L396.322,345.646z"/>
<g>
	<path style="fill:#D4D2D3;" d="M117.34,512v-47.596c0-4.267,3.459-7.726,7.726-7.726c4.267,0,7.726,3.459,7.726,7.726V512H117.34z"
		/>
	<path style="fill:#D4D2D3;" d="M379.208,512v-47.596c0-4.267,3.459-7.726,7.726-7.726c4.267,0,7.726,3.459,7.726,7.726V512H379.208
		z"/>
</g>
<circle style="fill:#E3B098;" cx="454.217" cy="244.328" r="43.711"/>
<path style="fill:#FBC4AC;" d="M60.888,179.999c-2.041,10.789-3.107,21.898-3.107,33.241c0,103.535,88.746,187.467,198.22,187.467
	s198.22-83.932,198.22-187.467c0-11.344-1.066-22.453-3.107-33.241L60.888,179.999L60.888,179.999z"/>
<path style="fill:#E3B098;" d="M88.685,213.241c0-11.344,1.066-22.453,3.107-33.241H60.887c-1.278,6.758-2.175,13.643-2.665,20.631
	c-0.15-0.002-0.289-0.011-0.442-0.011c-24.139,0-43.707,19.568-43.707,43.707s19.568,43.707,43.707,43.707
	c6.56,0,11.25-1.455,14.617-4.044c29.525,68.461,100.599,116.717,183.602,116.717c5.2,0,10.353-0.192,15.453-0.564
	C169.201,392.688,88.685,311.857,88.685,213.241z"/>
<path style="fill:#3A484A;" d="M156.243,237.747c-4.267,0-7.726-3.459-7.726-7.726v-19.397c0-4.267,3.459-7.726,7.726-7.726
	c4.267,0,7.726,3.459,7.726,7.726v19.397C163.97,234.288,160.51,237.747,156.243,237.747z"/>
<path style="fill:#F98084;" d="M169.452,276.558h-26.418c-4.267,0-7.726-3.459-7.726-7.726c0-4.267,3.459-7.726,7.726-7.726h26.418
	c4.267,0,7.726,3.459,7.726,7.726C177.179,273.099,173.719,276.558,169.452,276.558z"/>
<path style="fill:#3A484A;" d="M355.757,237.747c-4.267,0-7.726-3.459-7.726-7.726v-19.397c0-4.267,3.459-7.726,7.726-7.726
	s7.726,3.459,7.726,7.726v19.397C363.483,234.288,360.024,237.747,355.757,237.747z"/>
<path style="fill:#F98084;" d="M368.966,276.558h-26.418c-4.267,0-7.726-3.459-7.726-7.726c0-4.267,3.459-7.726,7.726-7.726h26.418
	c4.267,0,7.726,3.459,7.726,7.726C376.692,273.099,373.233,276.558,368.966,276.558z"/>
<g>
	<path style="fill:#3A484A;" d="M256,275.463c-9.183,0-17.807-3.841-23.66-10.536c-2.808-3.213-2.481-8.093,0.732-10.902
		c3.213-2.808,8.093-2.481,10.902,0.732c2.918,3.339,7.301,5.253,12.025,5.253c4.724,0,9.107-1.914,12.024-5.253
		c2.809-3.214,7.689-3.542,10.902-0.732c3.213,2.808,3.542,7.689,0.732,10.902C273.808,271.623,265.184,275.463,256,275.463z"/>
	<path style="fill:#3A484A;" d="M32.006,213.241c0-57.232,23.482-110.96,66.121-151.285C140.372,22.004,196.439,0,256,0
		c59.562,0,115.629,22.003,157.873,61.956c42.638,40.325,66.121,94.053,66.121,151.285L32.006,213.241L32.006,213.241z"/>
</g>
<path style="fill:#313D40;" d="M139.335,61.956c37.335-35.31,85.47-56.587,137.269-61.058C269.793,0.31,262.922,0,256,0
	C196.439,0,140.372,22.004,98.128,61.956c-42.639,40.325-66.121,94.053-66.121,151.285h41.207
	C73.213,156.01,96.696,102.282,139.335,61.956z"/>
<g>
</g>
<g>
</g>
<g>
</g>
<g>
</g>
<g>
</g>
<g>
</g>
<g>
</g>
<g>
</g>
<g>
</g>
<g>
</g>
<g>
</g>
<g>
</g>
<g>
</g>
<g>
</g>
<g>
</g>
</svg>
